<mxfile host="Electron" agent="Mozilla/5.0 (Macintosh; Intel Mac OS X 10_15_7) AppleWebKit/537.36 (KHTML, like Gecko) draw.io/28.0.6 Chrome/138.0.7204.100 Electron/37.2.3 Safari/537.36" version="28.0.6">
  <diagram name="PÃ¡gina-1" id="g8iYQ3v45XBnmqqe59ZT">
    <mxGraphModel dx="1045" dy="813" grid="1" gridSize="10" guides="1" tooltips="1" connect="1" arrows="1" fold="1" page="1" pageScale="1" pageWidth="850" pageHeight="1100" math="0" shadow="0">
      <root>
        <mxCell id="0" />
        <mxCell id="1" parent="0" />
        <mxCell id="UAK4pJaPxVNejUtqer-V-30" value="" style="fillColor=none;strokeColor=#5A6C86;dashed=1;verticalAlign=top;fontStyle=0;fontColor=#5A6C86;whiteSpace=wrap;html=1;rounded=1;" vertex="1" parent="1">
          <mxGeometry x="200" y="360" width="120" height="387" as="geometry" />
        </mxCell>
        <mxCell id="9vAylAvGdehRSpNqVZPn-5" value="Private subnet" style="points=[[0,0],[0.25,0],[0.5,0],[0.75,0],[1,0],[1,0.25],[1,0.5],[1,0.75],[1,1],[0.75,1],[0.5,1],[0.25,1],[0,1],[0,0.75],[0,0.5],[0,0.25]];outlineConnect=0;gradientColor=none;html=1;whiteSpace=wrap;fontSize=12;fontStyle=0;container=0;pointerEvents=0;collapsible=0;recursiveResize=0;shape=mxgraph.aws4.group;grIcon=mxgraph.aws4.group_security_group;grStroke=0;strokeColor=#00A4A6;fillColor=#E6F6F7;verticalAlign=top;align=left;spacingLeft=30;fontColor=#147EBA;dashed=0;rounded=1;" parent="1" vertex="1">
          <mxGeometry x="400" y="150" width="390" height="600" as="geometry" />
        </mxCell>
        <mxCell id="9vAylAvGdehRSpNqVZPn-20" value="" style="endArrow=block;html=1;rounded=0;fillColor=#dae8fc;strokeColor=#6c8ebf;endFill=1;endSize=3;strokeWidth=2;entryX=0;entryY=0.25;entryDx=0;entryDy=0;entryPerimeter=0;exitX=1;exitY=0.5;exitDx=0;exitDy=0;exitPerimeter=0;" parent="1" source="UAK4pJaPxVNejUtqer-V-2" target="UAK4pJaPxVNejUtqer-V-3" edge="1">
          <mxGeometry width="50" height="50" relative="1" as="geometry">
            <mxPoint x="784.5" y="552" as="sourcePoint" />
            <mxPoint x="490" y="491" as="targetPoint" />
            <Array as="points">
              <mxPoint x="620" y="260" />
              <mxPoint x="620" y="190" />
            </Array>
          </mxGeometry>
        </mxCell>
        <mxCell id="9vAylAvGdehRSpNqVZPn-21" value="AWS Cloud" style="points=[[0,0],[0.25,0],[0.5,0],[0.75,0],[1,0],[1,0.25],[1,0.5],[1,0.75],[1,1],[0.75,1],[0.5,1],[0.25,1],[0,1],[0,0.75],[0,0.5],[0,0.25]];outlineConnect=0;gradientColor=none;html=1;whiteSpace=wrap;fontSize=12;fontStyle=0;container=0;pointerEvents=0;collapsible=0;recursiveResize=0;shape=mxgraph.aws4.group;grIcon=mxgraph.aws4.group_aws_cloud_alt;strokeColor=#232F3E;fillColor=none;verticalAlign=top;align=left;spacingLeft=30;fontColor=#232F3E;dashed=0;rounded=1;" parent="1" vertex="1">
          <mxGeometry x="150" y="110" width="660" height="680" as="geometry" />
        </mxCell>
        <mxCell id="UAK4pJaPxVNejUtqer-V-1" value="VPC" style="points=[[0,0],[0.25,0],[0.5,0],[0.75,0],[1,0],[1,0.25],[1,0.5],[1,0.75],[1,1],[0.75,1],[0.5,1],[0.25,1],[0,1],[0,0.75],[0,0.5],[0,0.25]];outlineConnect=0;gradientColor=none;html=1;whiteSpace=wrap;fontSize=12;fontStyle=0;container=1;pointerEvents=0;collapsible=0;recursiveResize=0;shape=mxgraph.aws4.group;grIcon=mxgraph.aws4.group_vpc2;strokeColor=#8C4FFF;fillColor=none;verticalAlign=top;align=left;spacingLeft=30;fontColor=#AAB7B8;dashed=0;rounded=1;" vertex="1" parent="1">
          <mxGeometry x="170" y="140" width="630" height="630" as="geometry" />
        </mxCell>
        <mxCell id="UAK4pJaPxVNejUtqer-V-10" value="S3 - StaticWebsite" style="sketch=0;points=[[0,0,0],[0.25,0,0],[0.5,0,0],[0.75,0,0],[1,0,0],[0,1,0],[0.25,1,0],[0.5,1,0],[0.75,1,0],[1,1,0],[0,0.25,0],[0,0.5,0],[0,0.75,0],[1,0.25,0],[1,0.5,0],[1,0.75,0]];outlineConnect=0;fontColor=#232F3E;fillColor=#7AA116;strokeColor=#ffffff;dashed=0;verticalLabelPosition=bottom;verticalAlign=top;align=center;html=1;fontSize=12;fontStyle=0;aspect=fixed;shape=mxgraph.aws4.resourceIcon;resIcon=mxgraph.aws4.s3;rounded=1;labelPosition=center;spacingBottom=-5;spacingTop=-7;" vertex="1" parent="UAK4pJaPxVNejUtqer-V-1">
          <mxGeometry x="50" y="367" width="78" height="78" as="geometry" />
        </mxCell>
        <mxCell id="UAK4pJaPxVNejUtqer-V-7" value="" style="sketch=0;outlineConnect=0;fontColor=#232F3E;gradientColor=none;fillColor=#E7157B;strokeColor=none;dashed=0;verticalLabelPosition=bottom;verticalAlign=top;align=center;html=1;fontSize=12;fontStyle=0;aspect=fixed;pointerEvents=1;shape=mxgraph.aws4.email_notification;rounded=1;" vertex="1" parent="UAK4pJaPxVNejUtqer-V-1">
          <mxGeometry x="390" y="453" width="78" height="78" as="geometry" />
        </mxCell>
        <mxCell id="UAK4pJaPxVNejUtqer-V-6" value="SNS" style="sketch=0;points=[[0,0,0],[0.25,0,0],[0.5,0,0],[0.75,0,0],[1,0,0],[0,1,0],[0.25,1,0],[0.5,1,0],[0.75,1,0],[1,1,0],[0,0.25,0],[0,0.5,0],[0,0.75,0],[1,0.25,0],[1,0.5,0],[1,0.75,0]];outlineConnect=0;fontColor=#232F3E;fillColor=#E7157B;strokeColor=#ffffff;dashed=0;verticalLabelPosition=bottom;verticalAlign=top;align=center;html=1;fontSize=12;fontStyle=0;aspect=fixed;shape=mxgraph.aws4.resourceIcon;resIcon=mxgraph.aws4.sns;rounded=1;" vertex="1" parent="UAK4pJaPxVNejUtqer-V-1">
          <mxGeometry x="510" y="453" width="78" height="78" as="geometry" />
        </mxCell>
        <mxCell id="UAK4pJaPxVNejUtqer-V-26" value="" style="endArrow=block;html=1;rounded=0;fillColor=#dae8fc;strokeColor=#6c8ebf;endFill=1;endSize=3;strokeWidth=2;exitX=0;exitY=0.5;exitDx=0;exitDy=0;exitPerimeter=0;" edge="1" parent="UAK4pJaPxVNejUtqer-V-1" source="UAK4pJaPxVNejUtqer-V-6" target="UAK4pJaPxVNejUtqer-V-7">
          <mxGeometry width="50" height="50" relative="1" as="geometry">
            <mxPoint x="320" y="609" as="sourcePoint" />
            <mxPoint x="390" y="659" as="targetPoint" />
          </mxGeometry>
        </mxCell>
        <mxCell id="UAK4pJaPxVNejUtqer-V-19" value="Lambda" style="sketch=0;points=[[0,0,0],[0.25,0,0],[0.5,0,0],[0.75,0,0],[1,0,0],[0,1,0],[0.25,1,0],[0.5,1,0],[0.75,1,0],[1,1,0],[0,0.25,0],[0,0.5,0],[0,0.75,0],[1,0.25,0],[1,0.5,0],[1,0.75,0]];outlineConnect=0;fontColor=#232F3E;fillColor=#ED7100;strokeColor=#ffffff;dashed=0;verticalLabelPosition=bottom;verticalAlign=top;align=center;html=1;fontSize=12;fontStyle=0;aspect=fixed;shape=mxgraph.aws4.resourceIcon;resIcon=mxgraph.aws4.lambda;rounded=1;" vertex="1" parent="UAK4pJaPxVNejUtqer-V-1">
          <mxGeometry x="262" y="330" width="78" height="78" as="geometry" />
        </mxCell>
        <mxCell id="UAK4pJaPxVNejUtqer-V-21" value="CloudWatch Logs" style="sketch=0;outlineConnect=0;fontColor=#232F3E;gradientColor=none;fillColor=#E7157B;strokeColor=none;dashed=0;verticalLabelPosition=bottom;verticalAlign=top;align=center;html=1;fontSize=12;fontStyle=0;aspect=fixed;pointerEvents=1;shape=mxgraph.aws4.cloudwatch_logs;rounded=1;" vertex="1" parent="UAK4pJaPxVNejUtqer-V-1">
          <mxGeometry x="389.99999999999966" y="340" width="78" height="58" as="geometry" />
        </mxCell>
        <mxCell id="UAK4pJaPxVNejUtqer-V-22" value="" style="endArrow=block;html=1;rounded=0;fillColor=#dae8fc;strokeColor=#6c8ebf;endFill=1;endSize=3;exitX=1;exitY=0.5;exitDx=0;exitDy=0;exitPerimeter=0;strokeWidth=2;" edge="1" parent="UAK4pJaPxVNejUtqer-V-1" source="UAK4pJaPxVNejUtqer-V-19" target="UAK4pJaPxVNejUtqer-V-21">
          <mxGeometry width="50" height="50" relative="1" as="geometry">
            <mxPoint x="600" y="276" as="sourcePoint" />
            <mxPoint x="610" y="338" as="targetPoint" />
          </mxGeometry>
        </mxCell>
        <mxCell id="UAK4pJaPxVNejUtqer-V-5" value="Alarms" style="sketch=0;outlineConnect=0;fontColor=#232F3E;gradientColor=none;fillColor=#E7157B;strokeColor=none;dashed=0;verticalLabelPosition=top;verticalAlign=bottom;align=center;html=1;fontSize=12;fontStyle=0;aspect=fixed;pointerEvents=1;shape=mxgraph.aws4.alarm;rounded=1;labelPosition=center;" vertex="1" parent="UAK4pJaPxVNejUtqer-V-1">
          <mxGeometry x="510" y="330" width="78" height="78" as="geometry" />
        </mxCell>
        <mxCell id="UAK4pJaPxVNejUtqer-V-24" value="" style="endArrow=block;html=1;rounded=0;fillColor=#dae8fc;strokeColor=#6c8ebf;endFill=1;endSize=3;strokeWidth=2;" edge="1" parent="UAK4pJaPxVNejUtqer-V-1" source="UAK4pJaPxVNejUtqer-V-21" target="UAK4pJaPxVNejUtqer-V-5">
          <mxGeometry width="50" height="50" relative="1" as="geometry">
            <mxPoint x="570" y="546" as="sourcePoint" />
            <mxPoint x="580" y="608" as="targetPoint" />
          </mxGeometry>
        </mxCell>
        <mxCell id="UAK4pJaPxVNejUtqer-V-25" value="" style="endArrow=block;html=1;rounded=0;fillColor=#dae8fc;strokeColor=#6c8ebf;endFill=1;endSize=3;entryX=0.5;entryY=0;entryDx=0;entryDy=0;entryPerimeter=0;strokeWidth=2;" edge="1" parent="UAK4pJaPxVNejUtqer-V-1" source="UAK4pJaPxVNejUtqer-V-5" target="UAK4pJaPxVNejUtqer-V-6">
          <mxGeometry width="50" height="50" relative="1" as="geometry">
            <mxPoint x="570" y="586" as="sourcePoint" />
            <mxPoint x="580" y="648" as="targetPoint" />
            <Array as="points" />
          </mxGeometry>
        </mxCell>
        <mxCell id="UAK4pJaPxVNejUtqer-V-8" value="S3 Backup Glacier" style="sketch=0;points=[[0,0,0],[0.25,0,0],[0.5,0,0],[0.75,0,0],[1,0,0],[0,1,0],[0.25,1,0],[0.5,1,0],[0.75,1,0],[1,1,0],[0,0.25,0],[0,0.5,0],[0,0.75,0],[1,0.25,0],[1,0.5,0],[1,0.75,0]];outlineConnect=0;fontColor=#232F3E;fillColor=#7AA116;strokeColor=#ffffff;dashed=0;verticalLabelPosition=bottom;verticalAlign=top;align=center;html=1;fontSize=12;fontStyle=0;aspect=fixed;shape=mxgraph.aws4.resourceIcon;resIcon=mxgraph.aws4.glacier;rounded=1;" vertex="1" parent="UAK4pJaPxVNejUtqer-V-1">
          <mxGeometry x="50" y="487" width="78" height="78" as="geometry" />
        </mxCell>
        <mxCell id="UAK4pJaPxVNejUtqer-V-29" value="" style="endArrow=block;html=1;rounded=0;fillColor=#dae8fc;strokeColor=#6c8ebf;endFill=1;endSize=3;entryX=0.5;entryY=0;entryDx=0;entryDy=0;entryPerimeter=0;strokeWidth=2;" edge="1" parent="UAK4pJaPxVNejUtqer-V-1" target="UAK4pJaPxVNejUtqer-V-8">
          <mxGeometry width="50" height="50" relative="1" as="geometry">
            <mxPoint x="89" y="460" as="sourcePoint" />
            <mxPoint x="110" y="485" as="targetPoint" />
          </mxGeometry>
        </mxCell>
        <mxCell id="UAK4pJaPxVNejUtqer-V-3" value="DynamoDB" style="sketch=0;points=[[0,0,0],[0.25,0,0],[0.5,0,0],[0.75,0,0],[1,0,0],[0,1,0],[0.25,1,0],[0.5,1,0],[0.75,1,0],[1,1,0],[0,0.25,0],[0,0.5,0],[0,0.75,0],[1,0.25,0],[1,0.5,0],[1,0.75,0]];outlineConnect=0;fontColor=#232F3E;fillColor=#C925D1;strokeColor=#ffffff;dashed=0;verticalLabelPosition=bottom;verticalAlign=top;align=center;html=1;fontSize=12;fontStyle=0;aspect=fixed;shape=mxgraph.aws4.resourceIcon;resIcon=mxgraph.aws4.dynamodb;rounded=1;" vertex="1" parent="UAK4pJaPxVNejUtqer-V-1">
          <mxGeometry x="468" y="30" width="78" height="78" as="geometry" />
        </mxCell>
        <mxCell id="UAK4pJaPxVNejUtqer-V-16" value="SQS" style="sketch=0;points=[[0,0,0],[0.25,0,0],[0.5,0,0],[0.75,0,0],[1,0,0],[0,1,0],[0.25,1,0],[0.5,1,0],[0.75,1,0],[1,1,0],[0,0.25,0],[0,0.5,0],[0,0.75,0],[1,0.25,0],[1,0.5,0],[1,0.75,0]];outlineConnect=0;fontColor=#232F3E;fillColor=#E7157B;strokeColor=#ffffff;dashed=0;verticalLabelPosition=middle;verticalAlign=middle;align=left;html=1;fontSize=12;fontStyle=0;aspect=fixed;shape=mxgraph.aws4.resourceIcon;resIcon=mxgraph.aws4.sqs;rounded=1;labelPosition=right;" vertex="1" parent="UAK4pJaPxVNejUtqer-V-1">
          <mxGeometry x="262" y="210" width="78" height="78" as="geometry" />
        </mxCell>
        <mxCell id="UAK4pJaPxVNejUtqer-V-20" value="" style="endArrow=block;html=1;rounded=0;fillColor=#dae8fc;strokeColor=#6c8ebf;endFill=1;endSize=3;exitX=0.5;exitY=1;exitDx=0;exitDy=0;exitPerimeter=0;entryX=0.5;entryY=0;entryDx=0;entryDy=0;entryPerimeter=0;strokeWidth=2;" edge="1" parent="UAK4pJaPxVNejUtqer-V-1" source="UAK4pJaPxVNejUtqer-V-16" target="UAK4pJaPxVNejUtqer-V-19">
          <mxGeometry width="50" height="50" relative="1" as="geometry">
            <mxPoint x="230" y="336" as="sourcePoint" />
            <mxPoint x="264" y="346" as="targetPoint" />
          </mxGeometry>
        </mxCell>
        <mxCell id="9vAylAvGdehRSpNqVZPn-7" value="RDS (BD)" style="points=[[0,0,0],[0.25,0,0],[0.5,0,0],[0.75,0,0],[1,0,0],[0,1,0],[0.25,1,0],[0.5,1,0],[0.75,1,0],[1,1,0],[0,0.25,0],[0,0.5,0],[0,0.75,0],[1,0.25,0],[1,0.5,0],[1,0.75,0]];outlineConnect=0;fontColor=#232F3E;fillColor=#C925D1;strokeColor=#ffffff;dashed=0;verticalLabelPosition=bottom;verticalAlign=top;align=center;html=1;fontSize=12;fontStyle=0;aspect=fixed;shape=mxgraph.aws4.resourceIcon;resIcon=mxgraph.aws4.rds;rounded=1;container=0;" parent="UAK4pJaPxVNejUtqer-V-1" vertex="1">
          <mxGeometry x="480" y="150" width="78" height="78" as="geometry" />
        </mxCell>
        <mxCell id="9vAylAvGdehRSpNqVZPn-3" value="Public subnet" style="points=[[0,0],[0.25,0],[0.5,0],[0.75,0],[1,0],[1,0.25],[1,0.5],[1,0.75],[1,1],[0.75,1],[0.5,1],[0.25,1],[0,1],[0,0.75],[0,0.5],[0,0.25]];outlineConnect=0;gradientColor=none;html=1;whiteSpace=wrap;fontSize=12;fontStyle=0;container=0;pointerEvents=0;collapsible=0;recursiveResize=0;shape=mxgraph.aws4.group;grIcon=mxgraph.aws4.group_security_group;grStroke=0;strokeColor=#7AA116;fillColor=#F2F6E8;verticalAlign=top;align=left;spacingLeft=30;fontColor=#248814;dashed=0;rounded=1;" parent="UAK4pJaPxVNejUtqer-V-1" vertex="1">
          <mxGeometry x="20" y="40" width="200" height="160" as="geometry" />
        </mxCell>
        <mxCell id="9vAylAvGdehRSpNqVZPn-2" value="ALB&lt;div&gt;ALB-ABP4&lt;/div&gt;" style="outlineConnect=0;fontColor=#232F3E;gradientColor=none;fillColor=#8C4FFF;strokeColor=none;dashed=0;verticalLabelPosition=bottom;verticalAlign=top;align=center;html=1;fontSize=12;fontStyle=0;aspect=fixed;pointerEvents=1;shape=mxgraph.aws4.application_load_balancer;rounded=1;container=0;" parent="UAK4pJaPxVNejUtqer-V-1" vertex="1">
          <mxGeometry x="86" y="80" width="78" height="78" as="geometry" />
        </mxCell>
        <mxCell id="UAK4pJaPxVNejUtqer-V-2" value="EC2" style="sketch=0;points=[[0,0,0],[0.25,0,0],[0.5,0,0],[0.75,0,0],[1,0,0],[0,1,0],[0.25,1,0],[0.5,1,0],[0.75,1,0],[1,1,0],[0,0.25,0],[0,0.5,0],[0,0.75,0],[1,0.25,0],[1,0.5,0],[1,0.75,0]];outlineConnect=0;fontColor=#232F3E;fillColor=#ED7100;strokeColor=#ffffff;dashed=0;verticalLabelPosition=top;verticalAlign=bottom;align=center;html=1;fontSize=12;fontStyle=0;aspect=fixed;shape=mxgraph.aws4.resourceIcon;resIcon=mxgraph.aws4.ec2;rounded=1;labelPosition=center;" vertex="1" parent="1">
          <mxGeometry x="510" y="220" width="78" height="78" as="geometry" />
        </mxCell>
        <mxCell id="UAK4pJaPxVNejUtqer-V-12" value="" style="outlineConnect=0;dashed=0;verticalLabelPosition=bottom;verticalAlign=top;align=center;html=1;shape=mxgraph.aws3.user;fillColor=#d5e8d4;strokeColor=#82b366;gradientColor=#97d077;aspect=fixed;rounded=1;" vertex="1" parent="1">
          <mxGeometry x="70" y="220" width="45" height="63" as="geometry" />
        </mxCell>
        <mxCell id="UAK4pJaPxVNejUtqer-V-13" value="" style="endArrow=block;html=1;rounded=0;fillColor=#dae8fc;strokeColor=#6c8ebf;endFill=1;endSize=3;exitX=1;exitY=0.68;exitDx=0;exitDy=0;exitPerimeter=0;strokeWidth=2;" edge="1" parent="1" source="UAK4pJaPxVNejUtqer-V-12" target="9vAylAvGdehRSpNqVZPn-2">
          <mxGeometry width="50" height="50" relative="1" as="geometry">
            <mxPoint x="420" y="220" as="sourcePoint" />
            <mxPoint x="454" y="230" as="targetPoint" />
          </mxGeometry>
        </mxCell>
        <mxCell id="UAK4pJaPxVNejUtqer-V-14" value="" style="endArrow=block;html=1;rounded=0;fillColor=#dae8fc;strokeColor=#6c8ebf;gradientColor=#ea6b66;entryX=0;entryY=0.5;entryDx=0;entryDy=0;entryPerimeter=0;strokeWidth=2;align=center;verticalAlign=middle;fontFamily=Helvetica;fontSize=11;fontColor=default;labelBackgroundColor=default;endFill=1;endSize=3;" edge="1" parent="1" source="9vAylAvGdehRSpNqVZPn-2" target="UAK4pJaPxVNejUtqer-V-2">
          <mxGeometry width="50" height="50" relative="1" as="geometry">
            <mxPoint x="390" y="230.00000000000003" as="sourcePoint" />
            <mxPoint x="475" y="230.39534883720935" as="targetPoint" />
          </mxGeometry>
        </mxCell>
        <mxCell id="UAK4pJaPxVNejUtqer-V-15" value="" style="endArrow=block;html=1;rounded=0;fillColor=#dae8fc;strokeColor=#6c8ebf;endFill=1;endSize=3;fontColor=default;labelBackgroundColor=default;strokeWidth=2;exitX=1;exitY=0.5;exitDx=0;exitDy=0;exitPerimeter=0;align=center;verticalAlign=middle;fontFamily=Helvetica;fontSize=11;" edge="1" parent="1" source="UAK4pJaPxVNejUtqer-V-2" target="9vAylAvGdehRSpNqVZPn-7">
          <mxGeometry width="50" height="50" relative="1" as="geometry">
            <mxPoint x="470" y="230.27999999999997" as="sourcePoint" />
            <mxPoint x="400" y="230.27999999999997" as="targetPoint" />
            <Array as="points">
              <mxPoint x="620" y="260" />
              <mxPoint x="620" y="329" />
            </Array>
          </mxGeometry>
        </mxCell>
        <mxCell id="UAK4pJaPxVNejUtqer-V-18" value="" style="endArrow=block;html=1;rounded=0;fillColor=#dae8fc;strokeColor=#6c8ebf;endFill=1;endSize=3;fontColor=default;labelBackgroundColor=default;entryX=0.5;entryY=0;entryDx=0;entryDy=0;entryPerimeter=0;strokeWidth=2;exitX=0.25;exitY=1;exitDx=0;exitDy=0;exitPerimeter=0;align=center;verticalAlign=middle;fontFamily=Helvetica;fontSize=11;" edge="1" parent="1" source="UAK4pJaPxVNejUtqer-V-2" target="UAK4pJaPxVNejUtqer-V-16">
          <mxGeometry width="50" height="50" relative="1" as="geometry">
            <mxPoint x="510" y="370" as="sourcePoint" />
            <mxPoint x="589" y="470" as="targetPoint" />
            <Array as="points">
              <mxPoint x="530" y="320" />
              <mxPoint x="471" y="320" />
            </Array>
          </mxGeometry>
        </mxCell>
        <mxCell id="UAK4pJaPxVNejUtqer-V-11" value="CloudFront&lt;div&gt;DistribuciÃ³n web&lt;/div&gt;" style="sketch=0;points=[[0,0,0],[0.25,0,0],[0.5,0,0],[0.75,0,0],[1,0,0],[0,1,0],[0.25,1,0],[0.5,1,0],[0.75,1,0],[1,1,0],[0,0.25,0],[0,0.5,0],[0,0.75,0],[1,0.25,0],[1,0.5,0],[1,0.75,0]];outlineConnect=0;fontColor=#232F3E;fillColor=#8C4FFF;strokeColor=#ffffff;dashed=0;verticalLabelPosition=top;verticalAlign=bottom;align=center;html=1;fontSize=12;fontStyle=0;aspect=fixed;shape=mxgraph.aws4.resourceIcon;resIcon=mxgraph.aws4.cloudfront;rounded=1;labelPosition=center;" vertex="1" parent="1">
          <mxGeometry x="220" y="397" width="78" height="78" as="geometry" />
        </mxCell>
        <mxCell id="UAK4pJaPxVNejUtqer-V-27" value="" style="endArrow=block;html=1;rounded=0;fillColor=#dae8fc;strokeColor=#6c8ebf;endFill=1;endSize=3;entryX=0.5;entryY=1;entryDx=0;entryDy=0;entryPerimeter=0;strokeWidth=2;" edge="1" parent="1" target="UAK4pJaPxVNejUtqer-V-11">
          <mxGeometry width="50" height="50" relative="1" as="geometry">
            <mxPoint x="260" y="507" as="sourcePoint" />
            <mxPoint x="350" y="689" as="targetPoint" />
          </mxGeometry>
        </mxCell>
        <mxCell id="UAK4pJaPxVNejUtqer-V-28" value="" style="endArrow=block;html=1;rounded=0;fillColor=#dae8fc;strokeColor=#6c8ebf;endFill=1;endSize=3;exitX=0;exitY=0.5;exitDx=0;exitDy=0;exitPerimeter=0;strokeWidth=2;entryX=0.5;entryY=1;entryDx=0;entryDy=0;entryPerimeter=0;" edge="1" parent="1" source="UAK4pJaPxVNejUtqer-V-11" target="UAK4pJaPxVNejUtqer-V-12">
          <mxGeometry width="50" height="50" relative="1" as="geometry">
            <mxPoint x="240" y="670" as="sourcePoint" />
            <mxPoint x="100" y="570" as="targetPoint" />
            <Array as="points">
              <mxPoint x="93" y="436" />
            </Array>
          </mxGeometry>
        </mxCell>
        <mxCell id="UAK4pJaPxVNejUtqer-V-31" value="" style="endArrow=block;html=1;rounded=0;fillColor=#dae8fc;strokeColor=#6c8ebf;endFill=1;endSize=3;strokeWidth=2;exitX=0.75;exitY=1;exitDx=0;exitDy=0;exitPerimeter=0;" edge="1" parent="1" source="UAK4pJaPxVNejUtqer-V-2" target="UAK4pJaPxVNejUtqer-V-21">
          <mxGeometry width="50" height="50" relative="1" as="geometry">
            <mxPoint x="652" y="650" as="sourcePoint" />
            <mxPoint x="550" y="490" as="targetPoint" />
            <Array as="points">
              <mxPoint x="568" y="420" />
              <mxPoint x="600" y="420" />
            </Array>
          </mxGeometry>
        </mxCell>
      </root>
    </mxGraphModel>
  </diagram>
</mxfile>
